<svg width="24" height="24" viewBox="0 0 24 24" fill="none" xmlns="http://www.w3.org/2000/svg">
<path d="M12 2C17.5228 2 22 6.47715 22 12C22 12.916 21.8755 13.8028 21.6445 14.6455C21.8731 15.176 22 15.7607 22 16.375V18C22 20.2091 20.2091 22 18 22H17C15.8954 22 15 21.1046 15 20V14.625C15 13.1753 16.1753 12 17.625 12C18.6958 12 19.6761 12.3856 20.4365 13.0244C20.4775 12.6886 20.5 12.3469 20.5 12C20.5 7.30558 16.6944 3.5 12 3.5C7.30558 3.5 3.5 7.30558 3.5 12C3.5 12.3468 3.52151 12.6886 3.5625 13.0244C4.32303 12.3854 5.30388 12 6.375 12C7.82475 12 9 13.1753 9 14.625V20C9 21.1046 8.10457 22 7 22H6C3.79086 22 2 20.2091 2 18V16.375C2 15.7608 2.12602 15.1759 2.35449 14.6455C2.12355 13.8029 2 12.9159 2 12C2 6.47715 6.47715 2 12 2Z" fill="white" fill-opacity="0.5"/>
</svg>
