<svg width="24" height="24" viewBox="0 0 24 24" fill="none" xmlns="http://www.w3.org/2000/svg">
<path d="M8.25 9.7498H3.75C3.55109 9.7498 3.36032 9.67078 3.21967 9.53013C3.07902 9.38947 3 9.19871 3 8.9998V4.4998C3 4.30088 3.07902 4.11012 3.21967 3.96947C3.36032 3.82881 3.55109 3.7498 3.75 3.7498C3.94891 3.7498 4.13968 3.82881 4.28033 3.96947C4.42098 4.11012 4.5 4.30088 4.5 4.4998V7.18948L5.87156 5.81792C7.54426 4.1368 9.816 3.18859 12.1875 3.18167H12.2372C14.5885 3.17561 16.8476 4.09614 18.525 5.74386C18.662 5.88398 18.7387 6.07213 18.7387 6.26808C18.7387 6.46402 18.662 6.65218 18.5251 6.79231C18.3881 6.93245 18.2018 7.01342 18.0059 7.01792C17.81 7.02241 17.6201 6.95007 17.4769 6.81636C16.0787 5.44393 14.1964 4.67708 12.2372 4.68167H12.195C10.2189 4.68775 8.32601 5.47776 6.93188 6.87823L5.56031 8.2498H8.25C8.44891 8.2498 8.63968 8.32881 8.78033 8.46947C8.92098 8.61012 9 8.80088 9 8.9998C9 9.19871 8.92098 9.38947 8.78033 9.53013C8.63968 9.67078 8.44891 9.7498 8.25 9.7498ZM20.25 14.2498H15.75C15.5511 14.2498 15.3603 14.3288 15.2197 14.4695C15.079 14.6101 15 14.8009 15 14.9998C15 15.1987 15.079 15.3895 15.2197 15.5301C15.3603 15.6708 15.5511 15.7498 15.75 15.7498H18.4397L17.0681 17.1214C15.6742 18.5216 13.7817 19.3116 11.8059 19.3179H11.7638C9.80454 19.3225 7.92227 18.5557 6.52406 17.1832C6.45421 17.1118 6.37077 17.055 6.27866 17.0162C6.18655 16.9775 6.08762 16.9575 5.98769 16.9575C5.88775 16.9575 5.78883 16.9775 5.69672 17.0162C5.60461 17.055 5.52119 17.1118 5.45134 17.1833C5.38149 17.2548 5.32663 17.3395 5.28998 17.4324C5.25333 17.5254 5.23563 17.6248 5.23793 17.7247C5.24022 17.8246 5.26245 17.923 5.30333 18.0142C5.3442 18.1054 5.40289 18.1875 5.47594 18.2557C7.15338 19.9035 9.41242 20.824 11.7638 20.8179H11.8125C14.1837 20.8108 16.455 19.8626 18.1275 18.1817L19.5 16.8101V19.4998C19.5 19.6987 19.579 19.8895 19.7197 20.0301C19.8603 20.1708 20.0511 20.2498 20.25 20.2498C20.4489 20.2498 20.6397 20.1708 20.7803 20.0301C20.921 19.8895 21 19.6987 21 19.4998V14.9998C21 14.8009 20.921 14.6101 20.7803 14.4695C20.6397 14.3288 20.4489 14.2498 20.25 14.2498Z" fill="black"/>
</svg>
