<svg width="24" height="24" viewBox="0 0 24 24" fill="none" xmlns="http://www.w3.org/2000/svg">
<path d="M20.625 15.8523L12.0001 20.8819L3.37505 15.8523C3.20428 15.7672 3.00753 15.7505 2.82484 15.8054C2.64215 15.8603 2.48725 15.9828 2.39168 16.1479C2.29611 16.313 2.26704 16.5083 2.3104 16.6941C2.35375 16.8799 2.46627 17.0421 2.62505 17.1479L11.6251 22.3979C11.7397 22.4648 11.8701 22.5 12.0029 22.5C12.1356 22.5 12.266 22.4648 12.3807 22.3979L21.3807 17.1479C21.4671 17.099 21.543 17.0334 21.6039 16.9549C21.6648 16.8765 21.7095 16.7867 21.7354 16.6908C21.7613 16.5949 21.7679 16.4949 21.7548 16.3964C21.7418 16.2979 21.7093 16.2031 21.6592 16.1173C21.6092 16.0315 21.5426 15.9565 21.4634 15.8966C21.3841 15.8368 21.2937 15.7932 21.1975 15.7686C21.1013 15.7439 21.0012 15.7386 20.9029 15.753C20.8046 15.7674 20.7102 15.8011 20.625 15.8523Z" fill="black"/>
<path d="M20.625 11.3523L12.0001 16.3819L3.37505 11.3523C3.20428 11.2672 3.00753 11.2505 2.82484 11.3054C2.64215 11.3603 2.48725 11.4828 2.39168 11.6479C2.29611 11.813 2.26704 12.0083 2.3104 12.1941C2.35375 12.3799 2.46627 12.5421 2.62505 12.6479L11.6251 17.8979C11.7397 17.9648 11.8701 18 12.0029 18C12.1356 18 12.266 17.9648 12.3807 17.8979L21.3807 12.6479C21.4671 12.599 21.543 12.5334 21.6039 12.4549C21.6648 12.3765 21.7095 12.2867 21.7354 12.1908C21.7613 12.0949 21.7679 11.9949 21.7548 11.8964C21.7418 11.7979 21.7093 11.7031 21.6592 11.6173C21.6092 11.5315 21.5426 11.4565 21.4634 11.3966C21.3841 11.3368 21.2937 11.2932 21.1975 11.2686C21.1013 11.2439 21.0012 11.2386 20.9029 11.253C20.8046 11.2674 20.7102 11.3011 20.625 11.3523Z" fill="black"/>
<path d="M2.62499 8.14774L11.625 13.3977C11.7397 13.4646 11.87 13.4999 12.0028 13.4999C12.1356 13.4999 12.2659 13.4646 12.3806 13.3977L21.3806 8.14774C21.4938 8.08169 21.5878 7.98712 21.653 7.87345C21.7183 7.75979 21.7527 7.631 21.7527 7.49993C21.7527 7.36885 21.7183 7.24006 21.653 7.1264C21.5878 7.01274 21.4938 6.91816 21.3806 6.85211L12.3806 1.60211C12.2659 1.53524 12.1356 1.5 12.0028 1.5C11.87 1.5 11.7397 1.53524 11.625 1.60211L2.62499 6.85211C2.51177 6.91816 2.41784 7.01274 2.35256 7.1264C2.28728 7.24006 2.25293 7.36885 2.25293 7.49993C2.25293 7.631 2.28728 7.75979 2.35256 7.87345C2.41784 7.98712 2.51177 8.08169 2.62499 8.14774Z" fill="black"/>
</svg>
