<svg width="24" height="24" viewBox="0 0 24 24" fill="none" xmlns="http://www.w3.org/2000/svg">
<path d="M6.01126 13.8564C6.0138 13.9072 6.00599 13.958 5.98828 14.0057C5.97058 14.0533 5.94336 14.0969 5.90828 14.1338C5.8732 14.1706 5.831 14.1999 5.78423 14.2199C5.73747 14.2399 5.68712 14.2502 5.63626 14.2501H1.50001C1.33073 14.2504 1.16634 14.1934 1.03358 14.0884C0.900815 13.9833 0.807483 13.8365 0.76876 13.6717C0.744649 13.5589 0.74576 13.4422 0.772015 13.3299C0.79827 13.2176 0.84902 13.1124 0.920635 13.022C1.58233 12.1445 2.46028 11.4536 3.46876 11.0167C3.026 10.613 2.68642 10.1091 2.47846 9.54721C2.27049 8.9853 2.2002 8.38173 2.27346 7.78707C2.34672 7.1924 2.56141 6.62395 2.89955 6.12931C3.23768 5.63468 3.68941 5.22827 4.21691 4.94413C4.74441 4.65998 5.33232 4.50636 5.93139 4.49615C6.53047 4.48594 7.12327 4.61942 7.66015 4.88542C8.19703 5.15142 8.66235 5.54219 9.01715 6.02501C9.37195 6.50783 9.60589 7.06863 9.69938 7.66046C9.71146 7.74004 9.6972 7.82139 9.65879 7.89213C9.62037 7.96287 9.5599 8.01912 9.48657 8.05233C8.44631 8.53325 7.56532 9.30168 6.94755 10.267C6.32977 11.2322 6.00099 12.3541 6.00001 13.5001C6.00001 13.6201 6.00001 13.7383 6.01126 13.8564ZM23.0738 13.0211C22.4136 12.1446 21.5376 11.454 20.5313 11.0167C20.974 10.613 21.3136 10.1091 21.5216 9.54721C21.7295 8.9853 21.7998 8.38173 21.7266 7.78707C21.6533 7.1924 21.4386 6.62395 21.1005 6.12931C20.7623 5.63468 20.3106 5.22827 19.7831 4.94413C19.2556 4.65998 18.6677 4.50636 18.0686 4.49615C17.4696 4.48594 16.8768 4.61942 16.3399 4.88542C15.803 5.15142 15.3377 5.54219 14.9829 6.02501C14.6281 6.50783 14.3941 7.06863 14.3006 7.66046C14.2886 7.74004 14.3028 7.82139 14.3412 7.89213C14.3796 7.96287 14.4401 8.01912 14.5134 8.05233C15.5537 8.53325 16.4347 9.30168 17.0525 10.267C17.6702 11.2322 17.999 12.3541 18 13.5001C18 13.6201 18 13.7383 17.9888 13.8564C17.9862 13.9072 17.994 13.958 18.0117 14.0057C18.0294 14.0533 18.0567 14.0969 18.0917 14.1338C18.1268 14.1706 18.169 14.1999 18.2158 14.2199C18.2626 14.2399 18.3129 14.2502 18.3638 14.2501H22.5C22.6693 14.2504 22.8337 14.1934 22.9664 14.0884C23.0992 13.9833 23.1925 13.8365 23.2313 13.6717C23.2555 13.5587 23.2544 13.4417 23.228 13.3292C23.2015 13.2167 23.1505 13.1115 23.0784 13.0211H23.0738ZM14.73 17.0692C15.4768 16.4973 16.0256 15.7058 16.2992 14.8059C16.5729 13.9059 16.5577 12.9429 16.2558 12.0521C15.9538 11.1612 15.3804 10.3874 14.6159 9.83936C13.8515 9.2913 12.9345 8.99656 11.9939 8.99656C11.0533 8.99656 10.1364 9.2913 9.37191 9.83936C8.60747 10.3874 8.03399 11.1612 7.73206 12.0521C7.43012 12.9429 7.41493 13.9059 7.6886 14.8059C7.96227 15.7058 8.51106 16.4973 9.25782 17.0692C7.9327 17.6434 6.8262 18.6267 6.10032 19.8751C6.03449 19.9892 5.99983 20.1185 5.99984 20.2502C5.99985 20.3819 6.03452 20.5112 6.10036 20.6252C6.16621 20.7392 6.26091 20.8339 6.37495 20.8997C6.48899 20.9655 6.61834 21.0002 6.75001 21.0001H17.25C17.3817 21.0002 17.511 20.9655 17.6251 20.8997C17.7391 20.8339 17.8338 20.7392 17.8997 20.6252C17.9655 20.5112 18.0002 20.3819 18.0002 20.2502C18.0002 20.1185 17.9655 19.9892 17.8997 19.8751C17.1723 18.6258 16.0637 17.6425 14.7366 17.0692H14.73Z" fill="black"/>
</svg>
