<svg width="24" height="24" viewBox="0 0 24 24" fill="none" xmlns="http://www.w3.org/2000/svg">
<path d="M10.9922 14.8048C11.9974 14.1356 12.7606 13.1607 13.1688 12.0243C13.5771 10.8878 13.6088 9.65012 13.2592 8.49425C12.9096 7.33838 12.1974 6.32569 11.2278 5.60593C10.2581 4.88617 9.08262 4.49756 7.87505 4.49756C6.66747 4.49756 5.49196 4.88617 4.52233 5.60593C3.55271 6.32569 2.84045 7.33838 2.49088 8.49425C2.14132 9.65012 2.17301 10.8878 2.58126 12.0243C2.98952 13.1607 3.75267 14.1356 4.75786 14.8048C2.93957 15.475 1.38671 16.7151 0.330984 18.3402C0.275499 18.4226 0.236959 18.5153 0.217604 18.6128C0.198249 18.7103 0.198466 18.8106 0.218241 18.908C0.238017 19.0055 0.276957 19.098 0.332798 19.1802C0.388639 19.2624 0.460266 19.3327 0.543518 19.387C0.626769 19.4413 0.719983 19.4785 0.817742 19.4965C0.9155 19.5144 1.01585 19.5128 1.11297 19.4916C1.21008 19.4705 1.30202 19.4302 1.38344 19.3732C1.46486 19.3162 1.53413 19.2435 1.58723 19.1595C2.26822 18.1121 3.20007 17.2515 4.29814 16.6556C5.39622 16.0598 6.62574 15.7477 7.87505 15.7477C9.12436 15.7477 10.3539 16.0598 11.452 16.6556C12.55 17.2515 13.4819 18.1121 14.1629 19.1595C14.2729 19.323 14.4428 19.4367 14.6359 19.4759C14.829 19.5151 15.0298 19.4767 15.1949 19.369C15.3599 19.2614 15.476 19.0931 15.5179 18.9006C15.5599 18.708 15.5244 18.5067 15.4191 18.3402C14.3634 16.7151 12.8105 15.475 10.9922 14.8048ZM3.75005 10.1248C3.75005 9.30899 3.99197 8.51147 4.44523 7.83311C4.8985 7.15476 5.54273 6.62605 6.29648 6.31384C7.05022 6.00163 7.87962 5.91994 8.67979 6.0791C9.47997 6.23827 10.215 6.63113 10.7919 7.20803C11.3688 7.78492 11.7616 8.51992 11.9208 9.32009C12.0799 10.1203 11.9983 10.9497 11.686 11.7034C11.3738 12.4572 10.8451 13.1014 10.1668 13.5547C9.48842 14.0079 8.69089 14.2498 7.87505 14.2498C6.78141 14.2486 5.73292 13.8136 4.9596 13.0403C4.18628 12.267 3.75129 11.2185 3.75005 10.1248ZM23.4507 19.378C23.2841 19.4866 23.0812 19.5246 22.8865 19.4837C22.6919 19.4427 22.5215 19.3261 22.4129 19.1595C21.7327 18.1115 20.801 17.2505 19.7027 16.6549C18.6044 16.0593 17.3744 15.7482 16.125 15.7498C15.9261 15.7498 15.7354 15.6708 15.5947 15.5302C15.4541 15.3895 15.375 15.1988 15.375 14.9998C15.375 14.8009 15.4541 14.6102 15.5947 14.4695C15.7354 14.3289 15.9261 14.2498 16.125 14.2498C16.7325 14.2493 17.3324 14.1145 17.8817 13.8553C18.4311 13.596 18.9164 13.2186 19.303 12.75C19.6896 12.2814 19.9679 11.7332 20.1181 11.1446C20.2683 10.556 20.2866 9.9415 20.1718 9.34498C20.0569 8.74846 19.8117 8.18468 19.4537 7.6939C19.0958 7.20312 18.6338 6.79747 18.1008 6.50593C17.5679 6.2144 16.9771 6.04416 16.3708 6.0074C15.7644 5.97064 15.1574 6.06826 14.5932 6.29328C14.5012 6.33305 14.4021 6.35398 14.3019 6.35482C14.2017 6.35567 14.1023 6.33642 14.0096 6.29821C13.917 6.26 13.8329 6.2036 13.7624 6.13236C13.6919 6.06111 13.6364 5.97645 13.5992 5.88339C13.562 5.79033 13.5438 5.69076 13.5457 5.59055C13.5476 5.49034 13.5696 5.39152 13.6103 5.29995C13.6511 5.20838 13.7098 5.1259 13.7829 5.0574C13.8561 4.98889 13.9422 4.93574 14.0363 4.90109C15.3277 4.38608 16.764 4.36754 18.0682 4.84907C19.3725 5.33059 20.4522 6.27805 21.099 7.50867C21.7459 8.73929 21.9141 10.1659 21.5713 11.5132C21.2284 12.8605 20.3987 14.0332 19.2422 14.8048C21.0605 15.475 22.6134 16.7151 23.6691 18.3402C23.7777 18.5068 23.8158 18.7097 23.7748 18.9043C23.7338 19.0989 23.6172 19.2693 23.4507 19.378Z" fill="black"/>
</svg>
